<svg xmlns="http://www.w3.org/2000/svg" viewBox="0 0 48 48">
    <path d="M24 9.5c3.9 0 7.1 1.4 9.5 3.7l7-7C35.8 2.5 30.3 0 24 0 14.6 0 6.6 5.8 2.5 14.2l8.3 6.5C12.5 13.2 17.7 9.5 24 9.5z" fill="#EA4335"/>
    <path d="M46.5 24.5c0-1.6-.1-3.1-.4-4.5H24v9h12.7c-.6 3.2-2.4 5.9-5 7.7l7.7 6c4.5-4.1 7.1-10.2 7.1-18.2z" fill="#4285F4"/>
    <path d="M12.8 28.2c-1.1-3.2-1.1-6.8 0-10l-8.3-6.5C1.6 15.5 0 19.6 0 24s1.6 8.5 4.5 11.8l8.3-6.5z" fill="#FBBC05"/>
    <path d="M24 48c6.3 0 11.6-2.1 15.5-5.8l-7.7-6c-2.1 1.4-4.8 2.3-7.8 2.3-6 0-11.1-4.1-12.9-9.6l-8.3 6.5C6.6 42.2 14.6 48 24 48z" fill="#34A853"/>
</svg>